<svg width="127" height="24" viewBox="0 0 127 24" fill="none" xmlns="http://www.w3.org/2000/svg">
<path d="M1.99999 16C-0.209145 13.7909 -0.209145 10.2091 1.99999 7.99999L7.99999 1.99999C10.2091 -0.209145 13.7909 -0.209145 16 1.99999L22 7.99999C24.2091 10.2091 24.2091 13.7909 22 16L16 22C13.7909 24.2091 10.2091 24.2091 7.99999 22L1.99999 16Z" fill="#202020"/>
<path fill-rule="evenodd" clip-rule="evenodd" d="M19.7078 21.8284L19.8793 22C22.0885 24.2091 25.6702 24.2091 27.8793 22L33.8794 16C36.0885 13.7909 36.0885 10.2091 33.8794 8L27.8793 2C25.6702 -0.209136 22.0885 -0.209137 19.8793 2L19.7078 2.17158L20.9078 3.37158L21.0793 3.2C22.6257 1.65361 25.1329 1.65361 26.6793 3.2L32.6794 9.2C34.2258 10.7464 34.2258 13.2536 32.6794 14.8L26.6793 20.8C25.1329 22.3464 22.6257 22.3464 21.0793 20.8L20.9078 20.6284L19.7078 21.8284Z" fill="#796455"/>
<path d="M118.522 23.6488C118.295 23.6488 118.103 23.5709 117.947 23.4151C117.791 23.2593 117.713 23.0675 117.713 22.8398V11.9276C117.713 11.6999 117.791 11.5081 117.947 11.3523C118.103 11.1846 118.295 11.1007 118.522 11.1007H125.731C125.947 11.1007 126.127 11.1786 126.271 11.3344C126.426 11.4782 126.504 11.658 126.504 11.8737C126.504 12.0894 126.426 12.2692 126.271 12.413C126.127 12.5568 125.947 12.6287 125.731 12.6287H119.349V16.6017H125.084C125.3 16.6017 125.48 16.6796 125.623 16.8354C125.779 16.9792 125.857 17.159 125.857 17.3747C125.857 17.5905 125.779 17.7702 125.623 17.9141C125.48 18.0579 125.3 18.1298 125.084 18.1298H119.349V22.1207H125.731C125.947 22.1207 126.127 22.1986 126.271 22.3544C126.426 22.4983 126.504 22.678 126.504 22.8938C126.504 23.1095 126.426 23.2893 126.271 23.4331C126.127 23.5769 125.947 23.6488 125.731 23.6488H118.522Z" fill="#202020"/>
<path d="M101.16 23.7387C100.932 23.7387 100.74 23.6608 100.584 23.505C100.429 23.3492 100.351 23.1574 100.351 22.9297V12.1973C100.351 11.8737 100.464 11.598 100.692 11.3703C100.92 11.1306 101.196 11.0108 101.519 11.0108H102.112C102.352 11.0108 102.574 11.0827 102.778 11.2265C102.981 11.3703 103.125 11.5501 103.209 11.7658L107.29 21.941L111.371 11.7658C111.467 11.5501 111.61 11.3703 111.802 11.2265C112.006 11.0827 112.228 11.0108 112.467 11.0108H113.061C113.384 11.0108 113.66 11.1306 113.888 11.3703C114.115 11.598 114.229 11.8737 114.229 12.1973V22.9297C114.229 23.1574 114.151 23.3492 113.995 23.505C113.84 23.6608 113.648 23.7387 113.42 23.7387C113.192 23.7387 112.995 23.6608 112.827 23.505C112.671 23.3492 112.593 23.1574 112.593 22.9297V12.7186L108.44 22.9836C108.345 23.2114 108.195 23.3971 107.991 23.5409C107.787 23.6728 107.554 23.7387 107.29 23.7387C107.026 23.7387 106.792 23.6728 106.589 23.5409C106.385 23.3971 106.235 23.2114 106.139 22.9836L101.987 12.7186V22.9297C101.987 23.1574 101.903 23.3492 101.735 23.505C101.579 23.6608 101.387 23.7387 101.16 23.7387Z" fill="#202020"/>
<path d="M86.902 23.7387C86.6503 23.7387 86.4525 23.6608 86.3087 23.505C86.1649 23.3492 86.093 23.1574 86.093 22.9297C86.093 22.8338 86.123 22.714 86.1829 22.5702L90.7671 11.7478C90.851 11.5561 90.9768 11.3883 91.1446 11.2445C91.3244 11.0887 91.5461 11.0108 91.8098 11.0108H91.9895C92.2652 11.0108 92.4869 11.0887 92.6547 11.2445C92.8225 11.3883 92.9483 11.5561 93.0322 11.7478L97.6164 22.5702C97.6763 22.714 97.7063 22.8338 97.7063 22.9297C97.7063 23.1574 97.6344 23.3492 97.4906 23.505C97.3468 23.6608 97.149 23.7387 96.8973 23.7387C96.5258 23.7387 96.2681 23.5709 96.1243 23.2353L94.9558 20.4309H88.8435L87.675 23.2353C87.5312 23.5709 87.2735 23.7387 86.902 23.7387ZM89.4727 18.9388H94.3266L91.8997 13.0961L89.4727 18.9388Z" fill="#202020"/>
<path d="M74.9486 23.7387C74.7209 23.7387 74.5292 23.6608 74.3734 23.505C74.2176 23.3492 74.1397 23.1574 74.1397 22.9297V11.9276C74.1397 11.6999 74.2176 11.5081 74.3734 11.3523C74.5292 11.1846 74.7209 11.1007 74.9486 11.1007H79.1374C80.2759 11.1007 81.2047 11.2625 81.9238 11.5861C82.6429 11.9096 83.1703 12.3471 83.5058 12.8984C83.8534 13.4377 84.0272 14.0549 84.0272 14.7501C84.0272 15.4452 83.8294 16.0924 83.4339 16.6916C83.0504 17.2908 82.4631 17.7283 81.6721 18.0039C82.1755 18.1358 82.577 18.3755 82.8766 18.723C83.1763 19.0586 83.398 19.4421 83.5418 19.8736C83.6976 20.305 83.7995 20.7245 83.8474 21.132C83.8953 21.5275 83.9193 21.8511 83.9193 22.1028V22.9297C83.9193 23.1574 83.8414 23.3492 83.6856 23.505C83.5298 23.6608 83.338 23.7387 83.1103 23.7387C82.8587 23.7387 82.6549 23.6668 82.4991 23.523C82.3553 23.3672 82.2834 23.1694 82.2834 22.9297V22.3904C82.2834 22.0908 82.2594 21.7372 82.2115 21.3297C82.1755 20.9223 82.0736 20.5208 81.9059 20.1253C81.7381 19.7298 81.4624 19.4062 81.0789 19.1545C80.7074 18.8908 80.18 18.759 79.4969 18.759H75.7756V22.9297C75.7756 23.1574 75.6917 23.3492 75.5239 23.505C75.3681 23.6608 75.1764 23.7387 74.9486 23.7387ZM75.7756 17.2129H79.0295C80.0362 17.2129 80.8452 17.0152 81.4564 16.6197C82.0796 16.2242 82.3912 15.6429 82.3912 14.8759C82.3912 14.4325 82.2894 14.0429 82.0856 13.7074C81.8819 13.3718 81.5283 13.1141 81.025 12.9343C80.5216 12.7426 79.8265 12.6467 78.9396 12.6467H75.7756V17.2129Z" fill="#202020"/>
<path d="M64.0113 23.7387C63.7836 23.7387 63.5919 23.6608 63.4361 23.505C63.2803 23.3492 63.2024 23.1574 63.2024 22.9297V11.9276C63.2024 11.6999 63.2803 11.5081 63.4361 11.3523C63.5919 11.1846 63.7836 11.1007 64.0113 11.1007H71.0045C71.2202 11.1007 71.4 11.1786 71.5438 11.3344C71.6996 11.4782 71.7775 11.658 71.7775 11.8737C71.7775 12.0894 71.6996 12.2692 71.5438 12.413C71.4 12.5568 71.2202 12.6287 71.0045 12.6287H64.8383V16.6017H70.3753C70.591 16.6017 70.7708 16.6796 70.9146 16.8354C71.0704 16.9792 71.1483 17.159 71.1483 17.3747C71.1483 17.5905 71.0704 17.7702 70.9146 17.9141C70.7708 18.0579 70.591 18.1298 70.3753 18.1298H64.8383V22.9297C64.8383 23.1574 64.7544 23.3492 64.5866 23.505C64.4308 23.6608 64.239 23.7387 64.0113 23.7387Z" fill="#202020"/>
<path d="M56.0797 19.3343C55.876 19.3343 55.7022 19.2683 55.5584 19.1365C55.4265 18.9927 55.3606 18.8189 55.3606 18.6152C55.3606 18.4114 55.4265 18.2376 55.5584 18.0938C55.7022 17.95 55.876 17.8781 56.0797 17.8781H59.4774C59.6812 17.8781 59.8549 17.95 59.9988 18.0938C60.1426 18.2376 60.2145 18.4114 60.2145 18.6152C60.2145 18.8189 60.1426 18.9927 59.9988 19.1365C59.8549 19.2683 59.6812 19.3343 59.4774 19.3343H56.0797Z" fill="#202020"/>
<path d="M44.6295 23.7387C44.4018 23.7387 44.2101 23.6608 44.0543 23.505C43.8985 23.3492 43.8205 23.1574 43.8205 22.9297V11.8377C43.8205 11.61 43.8985 11.4182 44.0543 11.2624C44.2101 11.0947 44.4018 11.0108 44.6295 11.0108C44.8572 11.0108 45.049 11.0947 45.2048 11.2624C45.3726 11.4182 45.4565 11.61 45.4565 11.8377V17.5545L51.6047 11.2984C51.6646 11.2265 51.7485 11.1606 51.8564 11.1007C51.9643 11.0407 52.0841 11.0108 52.2159 11.0108C52.4317 11.0108 52.6174 11.0887 52.7732 11.2445C52.929 11.3883 52.995 11.5681 52.971 11.7838C52.947 12.0115 52.8811 12.1793 52.7732 12.2872L48.6205 16.4219L53.3845 22.4263C53.5163 22.5941 53.5822 22.7679 53.5822 22.9477C53.5942 23.1634 53.5223 23.3492 53.3665 23.505C53.2107 23.6608 53.0189 23.7387 52.7912 23.7387C52.5156 23.7387 52.2998 23.6308 52.144 23.4151L47.5059 17.5006L45.4565 19.568V22.9297C45.4565 23.1574 45.3726 23.3492 45.2048 23.505C45.049 23.6608 44.8572 23.7387 44.6295 23.7387Z" fill="#202020"/>
<path d="M35.6181 23.0316C35.6181 23.4221 35.3015 23.7387 34.911 23.7387C34.5204 23.7387 34.2038 23.4221 34.2038 23.0316C34.2038 22.6411 34.5204 22.3245 34.911 22.3245C35.3015 22.3245 35.6181 22.6411 35.6181 23.0316Z" fill="#796455"/>
</svg>
